PathFileType	4	(X/Y/Z)	SUBJ51_2_walk_RCNL2025.trc
DataRate	CameraRate	NumFrames	NumMarkers	Units	OrigDataRate	OrigDataStartFrame	OrigNumFrames
100	100	9	25	mm	100	86	229
Frame#	Time	R_Shoulder			L_Shoulder			C7			J_Notch			R_Elbow			L_Elbow			R_Wrist			L_Wrist			R_Asis			L_Asis			Sacral			Thoracic			Sternum			R_Thigh_Lateral			R_Knee_Lateral			R_Shank_Lateral			R_Ankle_Lateral			R_Heel			R_Toe			L_Thigh_Lateral			L_Knee_Lateral			L_Shank_Lateral			L_Ankle_Lateral			L_Heel			L_Toe		
		X1	Y1	Z1	X2	Y2	Z2	X3	Y3	Z3	X4	Y4	Z4	X5	Y5	Z5	X6	Y6	Z6	X7	Y7	Z7	X8	Y8	Z8	X9	Y9	Z9	X10	Y10	Z10	X11	Y11	Z11	X12	Y12	Z12	X13	Y13	Z13	X14	Y14	Z14	X15	Y15	Z15	X16	Y16	Z16	X17	Y17	Z17	X18	Y18	Z18	X19	Y19	Z19	X20	Y20	Z20	X21	Y21	Z21	X22	Y22	Z22	X23	Y23	Z23	X24	Y24	Z24	X25	Y25	Z25
86	0.85000000	-597.149292	1429.198730	436.888733	-575.037659	1465.967041	-18.073452	-670.326294	1565.833130	191.986282	-529.971802	1443.227539	201.113144	-771.140564	1156.822998	493.114258	-561.793823	1180.418091	-159.780807	-802.431305	885.097534	477.527298	-345.924774	1042.321289	-130.371468	-542.228271	1004.751160	316.415161	-559.597656	991.927551	76.054108	-768.003723	1031.606812	205.828415	-779.842285	1359.845337	189.536972	-493.290955	1214.447998	189.339203	-476.830811	632.297180	406.123138	-443.210205	516.722595	353.969635	-394.402985	303.496368	416.305847	-307.037384	81.847473	304.871063	-346.192383	57.698685	241.792862	-148.334915	112.167526	286.288788	-709.715576	617.854797	-21.272818	-762.304199	505.986725	27.842978	-862.143311	340.770386	-12.378102	-1002.580322	113.105087	92.755119	-1050.878174	139.697998	145.037918	-866.060059	43.222122	119.848099
87	0.86000000	-582.378723	1427.875000	438.743073	-559.575806	1465.858887	-16.074562	-655.190613	1565.262695	194.265289	-514.666626	1442.800415	203.188232	-754.940430	1154.673462	494.471710	-548.317444	1180.202148	-158.104858	-784.370728	882.758179	478.337540	-333.221634	1041.047485	-128.856781	-525.681335	1004.895386	317.034790	-543.759766	990.932678	76.678085	-751.895874	1031.001099	206.693542	-764.368286	1359.141968	190.923309	-477.512634	1214.068481	190.601883	-458.546997	633.703796	404.900909	-426.396454	516.980225	353.882629	-380.416077	303.051422	416.065643	-300.398346	79.431427	304.278870	-340.998566	57.292076	241.436096	-141.143021	103.646454	283.670441	-693.400940	616.613831	-21.573507	-745.633606	504.918732	27.357697	-849.634888	342.377441	-13.390226	-997.553467	119.550415	91.047371	-1044.828491	148.219131	143.066071	-864.855896	43.174995	119.591896
88	0.87000000	-567.441528	1426.847168	440.588287	-544.123352	1466.024048	-14.046025	-639.998657	1565.080200	196.620056	-499.335938	1442.761353	205.281250	-738.285400	1152.681030	495.912598	-535.162964	1180.070801	-156.213425	-765.502167	880.550476	479.279388	-321.244522	1039.173889	-127.330738	-509.085785	1005.587708	317.652313	-527.767395	990.215637	77.378845	-735.749695	1030.755737	207.437271	-748.851685	1358.794189	192.392456	-461.615967	1214.078491	191.934158	-440.689453	635.270447	404.014709	-409.826660	517.644836	354.025635	-366.901215	303.034821	416.103699	-294.732910	77.376419	304.097351	-336.780334	57.545719	241.391159	-134.900909	94.658310	281.587860	-676.360840	615.430542	-21.977982	-727.796387	503.919678	26.829624	-836.192566	344.416962	-14.313832	-991.294678	126.735329	89.590553	-1037.088379	157.568085	141.591949	-863.500854	43.044716	119.373718
89	0.88000000	-552.321533	1426.136719	442.379852	-528.699951	1466.510620	-12.022648	-624.762573	1565.315308	199.024048	-484.010986	1443.130981	207.359222	-721.162720	1150.890625	497.417358	-522.323853	1180.059082	-154.099258	-745.851013	878.518555	480.353989	-310.012131	1036.729492	-125.805050	-492.541382	1006.827942	318.270142	-511.703186	989.786011	78.192947	-719.628052	1030.875854	208.053192	-733.322266	1358.803833	193.913406	-445.658081	1214.507568	193.315262	-423.367493	636.983398	403.557922	-393.504364	518.730164	354.386169	-353.695282	303.511963	416.480988	-289.820953	75.795776	304.343170	-333.272644	58.384731	241.732208	-129.493179	85.785774	280.108398	-658.483337	614.333557	-22.511810	-708.660461	503.009766	26.216663	-821.686157	346.992188	-15.138437	-983.542114	134.647522	88.450668	-1027.291504	167.699493	140.732040	-861.983948	42.849384	119.232780
90	0.89000000	-537.012390	1425.757935	444.074402	-513.322815	1467.355225	-10.042454	-609.503540	1565.959839	201.437225	-468.722778	1443.897095	209.385727	-703.565308	1149.340332	498.970306	-509.795929	1180.198364	-151.759109	-725.437195	876.712524	481.567291	-299.546722	1033.756866	-124.286274	-476.159668	1008.567688	318.902313	-495.643036	989.643005	79.157661	-703.585327	1031.326660	208.546844	-717.813538	1359.141235	195.442444	-429.711975	1215.354614	194.714844	-406.593689	638.831848	403.540741	-377.430847	520.171021	354.903717	-340.605957	304.434235	417.178741	-285.580017	74.693909	304.929565	-330.338196	59.621857	242.425186	-124.919212	77.515244	279.238220	-639.637756	613.347717	-23.205755	-688.127197	502.201782	25.451788	-805.987549	350.187317	-15.878517	-974.042480	143.230743	87.658302	-1015.101807	178.511169	140.544739	-860.262878	42.647976	119.212563
91	0.90000000	-521.522156	1425.712891	445.637024	-498.009430	1468.566162	-8.139165	-594.257019	1566.957520	203.809265	-453.497589	1445.005493	211.324249	-685.505981	1148.054932	500.560944	-497.575562	1180.507202	-149.201019	-704.274872	875.182220	482.931213	-289.866714	1030.306366	-122.776093	-460.040894	1010.716797	319.572296	-479.642242	989.778198	80.301956	-687.666626	1032.038208	208.939423	-702.361816	1359.756836	196.933624	-413.860229	1216.573853	196.094162	-390.289886	640.798523	403.888245	-361.674347	521.816223	355.496094	-327.587280	305.631195	418.073639	-281.975250	74.012131	305.687927	-327.898621	61.048943	243.334885	-121.174042	70.192421	278.893677	-619.717041	612.490723	-24.090065	-666.168945	501.503662	24.464113	-788.996643	354.044495	-16.566456	-962.586243	152.383209	87.198914	-1000.270691	189.847153	141.009018	-858.234680	42.559055	119.349274
92	0.91000000	-505.875763	1425.986450	447.046448	-482.782623	1470.112183	-6.338515	-579.072083	1568.214233	206.087357	-438.356201	1446.366211	213.141403	-667.025635	1147.038574	502.185516	-485.657288	1180.982056	-146.450119	-682.372498	873.964844	484.460617	-280.980118	1026.430664	-121.271187	-444.253143	1013.163147	320.311493	-463.729523	990.178101	81.639366	-671.910583	1032.924072	209.266998	-687.004395	1360.596680	198.351227	-398.184509	1218.073364	197.409531	-374.387817	642.831970	404.478302	-346.392395	523.471008	356.087158	-314.881561	306.870605	418.987000	-278.942047	73.666245	306.419373	-325.893250	62.496056	244.289932	-118.183975	64.026199	278.891144	-598.686340	611.774963	-25.178310	-642.856995	500.924683	23.210058	-770.662720	358.541382	-17.239225	-949.045471	161.966644	87.008606	-982.701294	201.512848	142.008011	-855.696533	42.773228	119.653748
93	0.92000000	-490.112671	1426.546143	448.295532	-467.675232	1471.923218	-4.659012	-564.001770	1569.624146	208.226624	-423.316071	1447.876831	214.809372	-648.191589	1146.273071	503.847290	-474.034180	1181.592773	-143.550430	-659.737427	873.076416	486.165649	-272.881752	1022.179565	-119.763680	-428.823029	1015.794128	321.156403	-447.912201	990.826782	83.163414	-656.350342	1033.903564	209.575211	-671.776611	1361.613892	199.677307	-382.751038	1219.735229	198.619019	-358.968323	644.809509	405.192169	-331.795166	524.957642	356.619659	-302.925415	307.933350	419.754333	-276.385712	73.565781	306.946411	-324.274200	63.843369	245.138702	-115.830246	59.095348	278.984894	-576.622314	611.217468	-26.449112	-618.363159	500.483582	21.697479	-750.992615	363.582977	-17.926943	-933.404480	171.826202	86.986275	-962.496582	213.297638	143.339859	-852.312927	43.548767	120.091827
94	0.93000000	-474.280609	1427.345215	449.387878	-452.729034	1473.901611	-3.115522	-549.088867	1571.100952	210.197723	-408.393402	1449.448120	216.308807	-629.087646	1145.723145	505.554810	-462.702057	1182.287720	-140.561478	-636.384155	872.509827	488.046341	-265.554771	1017.596619	-118.244087	-413.737762	1018.508667	322.142853	-432.188660	991.705627	84.847275	-641.009033	1034.919067	209.912064	-656.707153	1362.775513	200.913208	-367.598724	1221.442749	199.692322	-344.288544	646.549988	405.940582	-318.079712	526.158508	357.053253	-292.096039	308.672729	420.256531	-274.226837	73.629486	307.153564	-323.003418	65.015770	245.771469	-113.996307	55.351257	278.954620	-553.728394	610.854736	-27.839212	-592.931946	500.217621	19.989550	-730.043457	369.013489	-18.650770	-915.765747	181.812057	87.024200	-939.965088	224.994339	144.768951	-847.615479	45.172832	120.571716
